<svg xmlns="http://www.w3.org/2000/svg" width="144" height="106" fill="none" viewBox="0 0 144 106">
    <g clip-path="url(#prefix__clip0)">
        <path fill="#A610AD" d="M1.55 50.82c2.274 8.77 7.083 16.35 14.684 20.026 15.8 7.637 51.434 3.698 78.03-.823 13.756-2.339 25.848-8.792 34.632-17.874L1.55 50.82zM141.013 9.54h-14.592c-.693 0-1.261-.512-1.261-1.137 0-.626.568-1.14 1.261-1.14h2.523c-.693 0-1.26-.512-1.26-1.139s.567-1.138 1.26-1.138h-1.801c-.694 0-1.262-.512-1.262-1.139s.568-1.138 1.262-1.138h7.616c-1.69-.709-3.665-1.213-5.942-1.478-20.768-2.408-28.182-.816-30.798.821-3.26 2.066-6.882 3.5-10.674 4.225-12.813 2.387-36.776 5.258-58.495-.914C18.056 2.289 10.033 7.476 5.224 16.148h138.323c-.181-2.52-.721-4.848-1.714-6.884-.235.18-.523.278-.82.276zM.313 32.516c-.56 5.1-.37 10.255.565 15.3l128.116 4.231c3.527-3.65 6.523-7.776 8.902-12.256L.313 32.516zM50.984 43.43h-2.522c.694 0 1.262.514 1.262 1.14 0 .625-.568 1.137-1.262 1.137H33.869c-.692 0-1.26-.512-1.26-1.138 0-.625.568-1.139 1.26-1.139h2.524c-.693 0-1.26-.512-1.26-1.138 0-.625.567-1.139 1.26-1.139h-1.802c-.694 0-1.262-.512-1.262-1.138 0-.625.568-1.139 1.262-1.139h14.592c.694 0 1.26.512 1.26 1.14 0 .626-.566 1.137-1.26 1.137h1.801c.694 0 1.26.512 1.26 1.14 0 .626-.566 1.137-1.26 1.137zM143.552 16.226l-139.87 3.07C1.978 23.246.85 27.711.331 32.338h140.77c.916-2.707 1.596-5.489 2.031-8.313.421-2.718.588-5.348.419-7.799zM28.73 26.292h-2.523c.694 0 1.262.513 1.262 1.14 0 .625-.568 1.138-1.262 1.138H11.615c-.692 0-1.26-.513-1.26-1.139s.568-1.139 1.26-1.139h2.524c-.694 0-1.26-.512-1.26-1.138 0-.626.566-1.139 1.26-1.139h-1.802c-.694 0-1.262-.512-1.262-1.138 0-.626.568-1.139 1.262-1.139h14.592c.694 0 1.26.512 1.26 1.14 0 .626-.566 1.137-1.26 1.137h1.801c.694 0 1.26.513 1.26 1.14 0 .625-.566 1.137-1.26 1.137zM71.355 102.038c32.315 0 58.512-2.405 58.512-5.372s-26.197-5.372-58.512-5.372c-32.316 0-58.513 2.405-58.513 5.372s26.197 5.372 58.513 5.372z" opacity=".1"/>
        <path fill="url(#prefix__paint0_linear)" d="M130.99 52.297v-.028-.04c-.026-.15-.082-.293-.166-.42-.299-.478-.717-.872-1.212-1.144-.864-.473-2.051-.675-2.397-1.578-.106-.28-.109-.584-.161-.877-.092-.456-.302-.88-.609-1.229-.308-.349-.702-.611-1.144-.76-.411-.138-.855-.175-1.254-.345-.893-.38-1.364-1.313-1.763-2.177l-1.55-3.345c-.393.197-.901.104-1.269-.143-.354-.263-.636-.611-.82-1.012-.533-1.032-.762-2.201-1.388-3.184-.626-.982-1.876-1.758-2.981-1.33-.215.107-.439.199-.667.275-.947.22-1.994-.859-2.804-.335-.135.086-.245.206-.318.348v-.026c-.106.212-.165.445-.173.682v.164c0 .188.012.379.014.57.003.16-.009.32-.037.478v-.013c-.015.089-.038.176-.068.261-.21.565-.794.934-1.068 1.465v-.027c-.031.058-.057.118-.08.18-.048.138-.074.285-.074.432-.024.997 1.035 1.934 1.158 3.004.088.758.262 1.001.907 1.43l.142.094c-.056 0-.114.008-.178.009-.025 0-.05.003-.075.008-.114-.032-.233-.037-.349-.017-.117.02-.227.066-.324.134-.495.392-1.665.09-2.185 0-.519-.09-2.3.153-2.548 1.138-.249.985-.676 3.018-.676 3.018s0 1.29-.158 1.53c-.006.016-.006.035 0 .052 0 .362.013 2.537-.338 3.097-.086.13-.08.42-.016.775-.369.474-.716 1.028-.654 1.391.112.743 1.623 3.08 3.788 1.83 0 0 1.232-2.25-.318-3.444l.067-.262c.469.575.816.988.816.988l.047.13h-.047c.202.55.324 1.125.363 1.71-.005.213-.044.425-.115.628h.041c-.012.044-.025.088-.041.13-.076.22-.218.413-.407.55-1.082.766-2.322 6.233-2.322 6.233s-2.456 8.837-2.947 9.34c-.406.413 2.144 1.576 4.058 1.437.267-.016.531-.066.786-.148.011.13.025.26.038.38.04.391.082.755.108.868.068.285.203 3.193.203 3.193s-.276 1.89-.209 3.203c0 .09.012.177.019.262l-.238.036c-.361.81 1.127 7.568 1.33 8.136.135.448.21.911.225 1.379 0 0-.131.48-.022.743.068.16.112.33.131.503 0 0-.089.436.046.72.135.286-.022.785-.022.785s-.045 1.968-.451 3.04c-.11.288-.142.6-.093.905.049.305.179.59.375.83.028.037.058.072.091.105 0 0 2.239.019 2.633 0h.051c.158-.022.564-1.793.203-2.646-.362-.853-.045-1.904-.045-1.904V92.91s.406-.373 0-1.175c-.406-.803-.339-1.046-.339-1.046s.452-1.29-.022-1.706c-.474-.415.09-1.99.09-1.99l.16-5.252c-.084-.027-.169-.05-.255-.066l-.028-.269c-.093-.95-.173-2.244.034-2.612.207-.369.307-3.585.339-5.82l2.063.078c.044 1.045.089 1.999.118 2.12.068.285.204 3.193.204 3.193s-.277 1.89-.21 3.203c0 .09.011.177.019.262l-.238.036c-.361.81 1.127 7.568 1.33 8.136.135.448.211.911.227 1.379 0 0-.131.48-.024.743.068.16.112.33.131.503 0 0-.089.436.046.72.135.286-.023.785-.023.785s-.044 1.968-.45 3.04c-.109.288-.139.6-.088.905.051.304.182.59.379.827.028.037.059.072.091.106 0 0 2.239.018 2.633 0h.051c.158-.023.564-1.794.203-2.647-.361-.853-.045-1.903-.045-1.903v-1.55s.406-.373 0-1.175c-.405-.803-.339-1.046-.339-1.046s.452-1.29-.022-1.706c-.474-.415.09-1.99.09-1.99l.163-5.252c-.086-.028-.173-.05-.262-.066l-.028-.269c-.093-.95-.172-2.244.034-2.612.167-.302.262-2.246.305-4.144 0-.13 0-.262.011-.392.948-.04 1.892-.145 2.825-.316 0 0-1.104-3.894-.766-4.528.145-.273-.064-1.727-.351-3.293.4.323.897.502 1.411.509.494.947 1.995 3.126 2.841 3.462.992.392.248-3.083-.225-3.586-.224-.275-.412-.576-.56-.898l.04-.043c.013-.014.024-3.697-.203-3.63-.226.066-.496-.547-.496-.547l-.699-6.123-.293-2.563c.245.18.535.295.785.474.681.497.904 1.371 1.202 2.145.246.636.592 1.267 1.159 1.667.566.4 1.398.505 1.963.1.524-.38.678-1.066.794-1.691.95.333 2.103-.558 1.98-1.532-.03-.24-.119-.503.007-.713.251-.415 1.047-.174 1.309-.584.044-.07.067-.153.065-.236.004-.019.005-.026.005-.035zm-12.712 3.367c-.014.234.308 2.113.57 3.6-.215-.927-.646-1.916-1.494-2.594 0 0 0-.047-.011-.13h.011s-.035-.374-.041-.906c.002-.471.037-.942.105-1.408v-.012h-.017c0-.039.01-.08.017-.119.052-.393.159-.777.318-1.141.07-.143.151-.28.242-.41.14 1.263.313 2.884.3 3.12zm.704 4.353l.198 1.092.695 4.763v.022c-.374-2.01-.852-4.129-.852-4.129.049-.582.035-1.168-.041-1.748z"/>
        <path fill="#3F3D56" d="M110.463 42.405c-.131-1.207-1.44-2.248-1.047-3.397.213-.626.881-1.008 1.106-1.63.149-.41.082-.861.084-1.297.001-.437.103-.924.467-1.166.785-.522 1.796.553 2.712.334.222-.076.438-.168.646-.275 1.069-.424 2.279.349 2.88 1.326.601.977.826 2.143 1.342 3.17.176.396.448.742.793 1.007.356.245.843.338 1.228.142l1.499 3.331c.392.858.843 1.789 1.701 2.166.385.169.815.206 1.213.344.432.152.817.415 1.116.762.298.348.5.767.585 1.217.051.292.053.596.156.874.334.899 1.482 1.1 2.319 1.567.483.273.889.665 1.178 1.138.131.226.243.523.103.745-.253.407-1.021.167-1.264.581-.124.21-.037.47 0 .71.119.969-.998 1.856-1.917 1.524-.111.623-.262 1.306-.767 1.684-.543.405-1.348.298-1.897-.1-.548-.396-.881-1.025-1.119-1.658-.289-.771-.505-1.641-1.164-2.136-.238-.178-.524-.293-.757-.472-.523-.4-.785-1.06-.972-1.698-.242-.797-.435-1.616-.786-2.368-.35-.753-.905-1.453-1.666-1.797-.713-.32-1.536-.299-2.273-.559-1.268-.447-2.207-1.511-3.469-2.013-.403-.17-.785-.385-1.139-.643-.634-.416-.807-.658-.891-1.413z"/>
        <g opacity=".1">
            <path fill="#000" d="M110.581 37.122c.027-.051.05-.104.071-.158.147-.41.082-.861.083-1.297 0-.146.014-.291.041-.434-.121.258-.18.54-.172.825-.001.352.041.72-.023 1.064zM126.719 56.852c-.543.404-1.348.298-1.897-.1-.548-.4-.882-1.025-1.114-1.661-.289-.77-.504-1.641-1.164-2.136-.237-.178-.523-.294-.755-.472-.524-.4-.785-1.06-.974-1.691-.242-.797-.433-1.616-.785-2.369-.352-.752-.905-1.453-1.667-1.796-.712-.32-1.534-.3-2.271-.56-1.27-.446-2.208-1.51-3.469-2.012-.404-.17-.786-.386-1.14-.643-.621-.427-.786-.669-.877-1.423-.131-1.131-1.283-2.117-1.104-3.183-.029.057-.055.117-.077.177-.393 1.15.916 2.191 1.047 3.397.085.754.262.995.877 1.422.354.258.737.474 1.14.643 1.261.502 2.2 1.568 3.469 2.013.737.262 1.56.24 2.272.56.762.343 1.309 1.045 1.666 1.796.358.75.549 1.567.786 2.368.192.633.445 1.292.974 1.692.236.178.523.294.755.471.654.496.874 1.366 1.164 2.136.238.634.572 1.261 1.12 1.658.549.397 1.354.505 1.897.1.347-.26.524-.659.64-1.086-.103.275-.281.517-.513.699zM129.409 52.934c-.05.094-.072.2-.063.306.296-.292.964-.12 1.197-.495.054-.093.075-.201.06-.307-.304.287-.971.116-1.194.496zM127.486 55.168c-.025.13-.05.27-.081.406.801.25 1.727-.392 1.858-1.202-.319.624-1.104 1.04-1.777.796z" opacity=".1"/>
        </g>
        <path fill="#FBBEBE" d="M112.154 43.033s.436.878-.851.896c-1.286.018.829 5.701.829 5.701l2.139 2.717 2.661-1.437.154-3.963.196-2.395s-2.487-.806-2.029-1.872c.458-1.066-3.099.353-3.099.353z"/>
        <path fill="#575A89" d="M119.879 66.203s1.571 1.543 3.404-.504l-1.408-1.491h-1.78l-.216 1.995z"/>
        <path fill="#000" d="M120.049 64.208l-.216 1.995s1.571 1.543 3.404-.504" opacity=".1"/>
        <path fill="#FBBEBE" d="M122.692 64.48s.633 1.655 1.091 2.155c.458.5 1.178 3.962.218 3.57-.959-.391-2.792-3.308-2.902-3.809-.11-.5-.152-1.916-.152-1.916h1.745z"/>
        <path fill="#575A89" d="M108.969 72.971l8.465.327-.982-3.572-4.264-.086-3.219 3.331z"/>
        <path fill="#000" d="M110.146 72.971l8.466.327-.982-3.572-4.265-.086-3.219 3.331z" opacity=".1"/>
        <path fill="#FBBEBE" d="M111.739 78.867c-.2.372-.123 1.66-.032 2.612.057.607.12 1.073.12 1.073s-3.164.98-3.643.13c-.122-.215-.182-.593-.203-1.035-.065-1.307.203-3.19.203-3.19s-.131-2.894-.196-3.178c-.027-.113-.067-.474-.106-.864-.058-.58-.113-1.226-.113-1.226l4.32-2.286s0 .429-.008 1.088c-.024 2.072-.093 6.418-.342 6.876z"/>
        <path fill="#000" d="M111.827 82.552s-3.164.98-3.643.13c-.122-.215-.182-.593-.203-1.035.655-.1 2.647-.374 3.726-.168.057.607.12 1.073.12 1.073z" opacity=".1"/>
        <path fill="#3F3D56" d="M111.936 99.012h-.05c-.381.015-2.546 0-2.546 0-.032-.033-.062-.068-.089-.104-.192-.24-.318-.524-.367-.826-.05-.302-.02-.611.085-.899.393-1.067.436-3.027.436-3.027s.153-.5.023-.783c-.131-.284-.045-.719-.045-.719-.02-.172-.064-.34-.131-.5-.109-.261.022-.74.022-.74-.015-.466-.088-.926-.218-1.373-.197-.565-1.637-7.293-1.287-8.1 0 0 3.054-.522 4.211-.13l-.153 5.226s-.546 1.567-.088 1.981c.459.415.023 1.699.023 1.699s-.066.239.327 1.045c.393.806 0 1.176 0 1.176v1.545s-.305 1.045.043 1.894c.348.85-.043 2.608-.196 2.635z"/>
        <path fill="#FBBEBE" d="M117.93 78.867c-.2.372-.123 1.66-.033 2.612.058.607.121 1.073.121 1.073s-3.164.98-3.644.13c-.121-.215-.181-.593-.202-1.035-.066-1.307.202-3.19.202-3.19s-.13-2.894-.196-3.178c-.035-.152-.097-1.61-.145-2.918-.041-1.116-.073-2.124-.073-2.124l4.319.666s0 1.896-.053 3.843c-.047 1.89-.135 3.826-.296 4.12z"/>
        <path fill="#000" d="M118.018 82.552s-3.164.98-3.643.13c-.122-.215-.182-.593-.203-1.035.654-.1 2.647-.374 3.725-.168.058.607.121 1.073.121 1.073z" opacity=".1"/>
        <path fill="#3F3D56" d="M118.126 99.012h-.049c-.381.014-2.547 0-2.547 0-.031-.033-.061-.068-.089-.104-.191-.24-.317-.524-.367-.826-.049-.302-.019-.611.086-.899.393-1.072.432-3.032.432-3.032s.153-.5.022-.784c-.131-.283-.044-.718-.044-.718-.02-.172-.064-.34-.131-.5-.109-.262.022-.741.022-.741-.015-.465-.088-.926-.219-1.372-.196-.566-1.636-7.293-1.286-8.1 0 0 3.054-.522 4.211-.13l-.153 5.225s-.546 1.568-.088 1.982c.458.414.022 1.698.022 1.698s-.065.24.327 1.046c.393.806 0 1.175 0 1.175v1.546s-.305 1.045.044 1.894c.348.85-.04 2.613-.193 2.64z"/>
        <path fill="#000" d="M113.856 44.06c1.699 0 3.076-1.375 3.076-3.07 0-1.696-1.377-3.07-3.076-3.07s-3.076 1.374-3.076 3.07c0 1.695 1.377 3.07 3.076 3.07z" opacity=".1"/>
        <path fill="#FBBEBE" d="M113.856 43.93c1.699 0 3.076-1.375 3.076-3.07 0-1.696-1.377-3.07-3.076-3.07s-3.076 1.374-3.076 3.07c0 1.695 1.377 3.07 3.076 3.07z"/>
        <path fill="#000" d="M107.769 73.19l4.32-2.287s0 .429-.008 1.088c-.631.377-1.583.942-2.498 1.477-.497.29-.983.573-1.399.81-.097.052-.198.096-.302.13-.058-.573-.113-1.219-.113-1.219zM118.279 70.898s0 1.895-.053 3.843h-.016c-.323.012-.646.002-.967-.03-.565-.06-1.016-.209-1.179-.504-.328-.575-1.248-1.306-2.026-1.851-.041-1.116-.073-2.124-.073-2.124l4.314.666z" opacity=".1"/>
        <path fill="#575A89" d="M117.476 54.295c-.11.85-.131 1.71-.063 2.565 1.984 1.633 1.614 5.072 1.614 5.072s1.528 6.968 1.2 7.6c-.327.63.741 4.506.741 4.506-.91.173-1.832.278-2.758.317-.323.011-.646 0-.967-.03-.565-.06-1.016-.21-1.179-.505-.61-1.066-3.25-2.656-3.25-2.656s-1.673 1.001-3.231 1.912c-.497.29-.983.573-1.399.81-.338.178-.711.28-1.093.299-1.852.137-4.32-1.02-3.927-1.43.48-.502 2.859-9.298 2.859-9.298s1.199-5.444 2.246-6.205c.184-.139.321-.33.393-.548.358-.994-.241-2.588-.241-2.588s-3.381-4.158-3.23-4.398c.152-.24.154-1.524.154-1.524s.415-2.024.654-3.004c.24-.98 1.964-1.22 2.465-1.133.501.088 1.635.392 2.114 0 .479-.392 1.288.153 1.288.153l1.987.546 1.787-1.045s1.791.092 1.944.33c.153.24 2.51.698 2.51.698 1.199.805 1.156 4.638 1.156 4.638s-2.88 2.503-3.469 3.788c-.153.361-.256.742-.305 1.13z"/>
        <path fill="#575A89" d="M120.598 48.846l.654.523.677 6.075.676 6.096s.261.61.48.545c.219-.065.196 3.614.196 3.614s-2.505-1.538-3.403.504l-.699-4.924s-.896-5.03-.873-5.421c.022-.392-.459-4.638-.459-4.638l2.751-2.374zM105.674 49.13l-.48.588s.045 2.525-.327 3.135c-.372.61 1.026 4.18 1.55 3.962.523-.218 1.701-5.79 1.701-5.856 0-.066-2.444-1.83-2.444-1.83z"/>
        <path fill="#575A89" d="M105.631 52.722s-1.527 1.546-1.419 2.287c.109.74 1.571 3.067 3.666 1.817 0 0 1.942-3.646-2.247-4.104z"/>
        <path fill="#000" d="M111.886 99.016c-.381.014-2.546 0-2.546 0-.032-.033-.062-.068-.089-.104.554-.189 1.75-.47 2.635.104zM118.079 99.016c-.381.014-2.546 0-2.546 0-.032-.033-.061-.068-.089-.104.551-.189 1.748-.47 2.635.104zM109.738 60.722c-.334 3.196-.224 9.537-.155 12.354-.497.29-.983.573-1.399.81-.338.178-.711.28-1.093.299-.139-.852 1.783-9.6 2.647-13.463zM110.146 58.91c-.009.045-.167.74-.408 1.813.094-.916.225-1.573.408-1.814zM115.461 58.565s1.855 11.626-3.638 13.063c-.001-.005 3.8-.581 3.638-13.063z" opacity=".1"/>
        <path fill="#000" d="M118.21 74.355c-.323.011-.646.001-.967-.03l-1.482-15.898c.945.617 2.076 11.899 2.449 15.928zM111.565 39.054c.099-.008.197.002.292.03.139.069.264.163.369.277.171.142.375.24.594.281.218.043.444.029.655-.04.149-.066.308-.11.47-.13.25 0 .466.183.596.392.129.209.196.457.307.68.112.224.29.435.534.49.118.005.233.032.341.079.066.053.116.123.146.202.205.44.367.96.803 1.176.16.074.335.112.512.111.179.013.36-.02.523-.094.162-.09.295-.222.385-.383.273-.45.304-1.006.24-1.527-.08-.658-.315-1.287-.685-1.837-.39-.556-.921-.999-1.538-1.283-.618-.285-1.3-.4-1.977-.335-.236.026-.47.07-.7.13-.833.222-1.649.638-2.155 1.334-.122.174-.256.339-.402.494.229-.022.46-.042.69-.047z" opacity=".1"/>
        <path fill="#3F3D56" d="M111.565 38.923c.099-.008.197.003.292.03.139.07.264.163.369.277.171.143.375.24.594.282.218.042.444.028.655-.04.149-.067.308-.11.47-.13.25 0 .466.182.596.391.129.21.196.457.307.68.112.224.29.436.534.49.118.005.233.032.341.08.066.053.116.122.146.202.205.44.367.96.803 1.175.16.075.335.112.512.111.179.014.36-.019.523-.094.162-.09.295-.222.385-.383.273-.449.304-1.005.24-1.527-.08-.657-.315-1.287-.685-1.836-.39-.556-.921-1-1.538-1.284-.618-.284-1.3-.4-1.977-.335-.236.026-.47.07-.7.13-.833.223-1.649.638-2.155 1.334-.122.174-.256.34-.402.494.229-.022.46-.041.69-.047z"/>
        <path fill="#000" d="M108.227 46.234s.153 1.22-.37 1.524c-.524.304.37-1.524.37-1.524zM119.332 55.684s1.244-1.829 1.419-1.306c.175.522-1.419 1.306-1.419 1.306zM119.42 56.293s1.226-1.503 1.344-.915c.118.588-1.344.915-1.344.915zM115.817 54.504c-.445.007-.879-.136-1.233-.405h-.107c-.368.335-.85.516-1.347.506-.259.006-.516-.04-.756-.137-.24-.096-.458-.24-.641-.422h-.143c-.377.306-.85.47-1.336.46-.486-.008-.953-.189-1.319-.509l-.512-.009s.6 1.594.241 2.588l8.749.156c-.068-.855-.047-1.714.063-2.565v-.011l-.481-.01c-.345.24-.757.365-1.178.358z" opacity=".1"/>
        <path fill="#000" d="M115.817 54.766c-.445.006-.879-.137-1.233-.405h-.107c-.368.334-.85.515-1.347.505-.259.006-.516-.04-.756-.136-.24-.097-.458-.24-.641-.423h-.143c-.377.306-.85.47-1.336.46-.486-.008-.953-.189-1.319-.508l-.512-.01s.6 1.594.241 2.588l8.749.156c-.068-.855-.047-1.714.063-2.565v-.011l-.481-.01c-.345.24-.757.365-1.178.359z" opacity=".1"/>
        <path fill="#3F3D56" d="M115.817 54.635c-.445.006-.879-.136-1.233-.405h-.107c-.368.335-.85.516-1.347.506-.259.006-.516-.041-.756-.137s-.458-.24-.641-.423h-.143c-.377.307-.85.47-1.336.461-.486-.009-.953-.19-1.319-.509l-.512-.01s.6 1.595.241 2.589l8.749.155c-.068-.854-.047-1.714.063-2.564v-.012l-.481-.009c-.345.24-.757.364-1.178.358z"/>
        <path fill="#000" d="M115.428 45.924s1.842.118 1.854.379c.012.261-1.854-.379-1.854-.379zM110.954 44.81s-1.842.117-1.854.378c-.012.262 1.854-.378 1.854-.378zM117.993 50.151l-.055-.035c.471.423.392 1.348-.186 2.111-.579.763-1.457 1.08-1.991.738.017.015.031.03.05.045.523.4 1.439.086 2.044-.703.605-.79.664-1.755.138-2.156zM107.875 52.13c-.466-.84-.406-1.766.122-2.117-.02.01-.041.017-.06.027-.579.322-.655 1.285-.176 2.152.479.867 1.343 1.306 1.922.99.019-.01.037-.023.055-.036-.577.26-1.397-.178-1.863-1.017zM108.498 45.057l-.169.26-.43-.228.226-.347c.15.07.278.179.373.315z" opacity=".1"/>
        <path fill="#FBBEBE" d="M105.762 54.725s.384-1.8-.131-2.372c-.514-.572-.349-3.572.436-3.507.786.066 1.964 2.438 1.767 2.94-.196.501-.938 3.07-.938 3.07l-1.134-.131z"/>
        <path fill="#000" d="M118.079 41.737c-.09.16-.224.293-.385.383-.164.075-.344.107-.523.094-.177.001-.352-.037-.512-.111-.436-.217-.598-.737-.803-1.176-.025-.079-.071-.15-.133-.206-.106-.048-.22-.076-.337-.082-.244-.055-.421-.268-.534-.49-.112-.222-.179-.468-.307-.681-.129-.213-.346-.4-.596-.392-.163.022-.321.068-.47.137-.212.068-.437.081-.656.039-.218-.043-.422-.14-.593-.282-.105-.114-.23-.207-.369-.277-.095-.027-.194-.037-.292-.03-.15 0-.3.015-.45.026-.075.098-.155.191-.24.28.229-.02.46-.04.69-.044.098-.008.197.002.292.03.139.069.264.163.369.277.171.142.375.239.593.281.219.043.444.03.656-.038.149-.07.307-.116.47-.138.25 0 .466.183.596.392.129.21.196.458.307.68.112.224.29.436.534.49.117.007.231.035.337.083.066.053.116.123.146.203.205.44.367.96.803 1.175.16.075.335.112.512.111.179.014.36-.019.523-.094.162-.09.295-.222.385-.383.203-.369.294-.79.262-1.21-.01.336-.104.664-.275.953z" opacity=".1"/>
        <path fill="#575A89" d="M106.342 56.153c.651 0 1.178-.357 1.178-.797 0-.44-.527-.797-1.178-.797-.651 0-1.178.357-1.178.797 0 .44.527.797 1.178.797z"/>
        <path fill="#A610AD" d="M67.94 99.714c22.303 0 40.384-18.044 40.384-40.302s-18.08-40.301-40.385-40.301c-22.304 0-40.384 18.043-40.384 40.301 0 22.258 18.08 40.302 40.384 40.302z"/>
        <path fill="#444053" d="M89.13 79.665c0 6.362-10.023.543-20.768.543-10.745 0-21.613 5.579-21.613-.784 0-3.627 3.464-8.673 8.433-12.337 3.744-2.761 8.342-4.74 12.96-4.74 4.75 0 9.402 2.142 13.113 5.081 4.684 3.706 7.874 8.686 7.874 12.237z"/>
        <path fill="#F6F8FB" d="M81.254 67.425c-5.712-.858-16.041-1.904-26.072-.34 3.744-2.762 8.342-4.74 12.96-4.74 4.748 0 9.4 2.141 13.112 5.08z"/>
        <path fill="#000" d="M46.75 30.963s-12.166 7.762-12.066 19.902c.1 12.14 12.065-19.902 12.065-19.902z" opacity=".05"/>
        <path fill="#A610AD" d="M108.308 9.044s-11.022-.662-9.722 7.045c0 0-.262 1.362.979 1.98 0 0 .02-.57 1.13-.377.395.066.797.085 1.198.058.54-.037 1.054-.249 1.463-.604 0 0 3.099-1.276 4.304-6.33 0 0 .892-1.103.856-1.385l-1.86.791s.635 1.34.131 2.452c0 0-.06-2.402-.417-2.351-.072.012-.967.464-.967.464s1.094 2.333.262 4.027c0 0 .313-2.874-.61-3.859l-1.309.763s1.278 2.41.411 4.375c0 0 .223-3.015-.686-4.19l-1.187.924s1.2 2.375.469 4.006c0 0-.096-3.51-.726-3.776 0 0-1.038.915-1.196 1.29 0 0 .822 1.723.313 2.632 0 0-.313-2.338-.57-2.352 0 0-1.034 1.55-1.142 2.613 0 0 .045-1.58.891-2.76 0 0-1 .171-1.583.819 0 0 .161-1.096 1.833-1.191 0 0 .855-1.176 1.084-1.247 0 0-1.67-.14-2.681.308 0 0 .89-1.033 2.986-.564l1.178-.954s-2.197-.3-3.129.032c0 0 1.073-.915 3.445-.248l1.276-.762s-1.873-.402-2.99-.261c0 0 1.178-.634 3.363.053l.916-.409s-1.373-.269-1.775-.31c-.402-.042-.423-.155-.423-.155.872-.141 1.767-.038 2.583.3 0 0 1.935-.725 1.902-.847zM97.003 5.617s-4.974-.3-4.393 3.183c0 0-.117.615.442.895 0 0 .008-.262.511-.17.179.029.36.038.54.026.245-.018.477-.113.663-.273 0 0 1.4-.578 1.944-2.861 0 0 .403-.498.393-.626l-.84.358s.287.605.06 1.108c0 0-.027-1.086-.188-1.06-.032 0-.437.21-.437.21s.495 1.054.122 1.82c0 0 .141-1.3-.275-1.745l-.592.345s.578 1.09.186 1.978c0 0 .1-1.363-.31-1.893l-.537.417s.542 1.072.212 1.809c0 0-.043-1.586-.328-1.706 0 0-.469.413-.541.583 0 0 .372.783.141 1.19 0 0-.141-1.057-.261-1.061 0 0-.468.699-.516 1.176.022-.444.16-.874.402-1.248-.27.05-.518.18-.715.37 0 0 .072-.495.83-.539 0 0 .386-.53.49-.563 0 0-.755-.062-1.212.14 0 0 .402-.467 1.35-.261l.524-.43s-.993-.13-1.414.013c0 0 .484-.413 1.556-.11l.576-.346s-.845-.181-1.35-.116c0 0 .532-.286 1.52.025l.412-.186s-.62-.121-.801-.14c-.181-.018-.193-.069-.193-.069.393-.065.796-.02 1.165.131 0 0 .879-.319.864-.374z"/>
        <path fill="#A610AD" d="M140.475 95.366c1.947 0 3.525-.266 3.525-.594 0-.329-1.578-.595-3.525-.595-1.947 0-3.526.266-3.526.595 0 .328 1.579.594 3.526.594zM6.123 105.254c1.946 0 3.525-.266 3.525-.594 0-.329-1.579-.595-3.525-.595-1.947 0-3.526.266-3.526.595 0 .328 1.579.594 3.526.594zM26.587 106c1.947 0 3.526-.266 3.526-.594 0-.329-1.579-.595-3.526-.595-1.947 0-3.525.266-3.525.595 0 .328 1.578.594 3.525.594z" opacity=".1"/>
        <path fill="#A610AD" d="M132.759 102.03c2.907 0 5.264-.398 5.264-.888 0-.491-2.357-.889-5.264-.889s-5.264.398-5.264.889c0 .49 2.357.888 5.264.888z"/>
        <path fill="#A610AD" d="M134.935 99.69c.24-.195.415-.46.502-.756.065-.3-.064-.66-.35-.77-.322-.122-.667.101-.927.326-.261.224-.561.48-.902.433.175-.158.307-.36.381-.585.075-.224.089-.464.043-.696-.015-.096-.056-.187-.118-.261-.179-.191-.503-.11-.717.04-.681.478-.871 1.4-.875 2.231-.068-.299-.01-.611-.011-.914-.002-.303-.087-.653-.346-.814-.161-.086-.341-.128-.524-.123-.306-.011-.646.019-.856.242-.262.278-.192.743.034 1.045.227.302.57.498.885.708.254.15.471.357.634.602.019.035.035.071.047.109h1.918c.429-.218.826-.493 1.182-.817zM7.768 88.736s.719.938-.333 2.352c-1.05 1.413-1.917 2.613-1.57 3.496 0 0 1.585-2.631 2.88-2.67 1.294-.037.442-1.596-.977-3.178z"/>
        <path fill="#000" d="M7.768 88.736c.062.091.112.19.147.294 1.259 1.477 1.93 2.855.72 2.889-1.129.032-2.488 2.044-2.806 2.552.011.04.024.078.04.117 0 0 1.585-2.631 2.88-2.67 1.294-.037.438-1.6-.981-3.182z" opacity=".1"/>
        <path fill="#FFD037" d="M9.105 89.932c0 .33-.038.598-.084.598-.046 0-.083-.261-.083-.598 0-.337.046-.175.093-.175s.074-.156.074.175z"/>
        <path fill="#FFD037" d="M9.557 90.326c-.29.158-.543.254-.565.213-.022-.04.196-.2.487-.358.29-.158.175-.043.198 0 .022.043.176-.013-.12.145z"/>
        <path fill="#A610AD" d="M3.97 88.736s-.72.938.33 2.352C5.35 92.5 6.218 93.7 5.871 94.584c0 0-1.586-2.631-2.88-2.67-1.293-.037-.442-1.596.978-3.178z"/>
        <path fill="#000" d="M3.97 88.736c-.064.09-.113.19-.147.294-1.26 1.477-1.931 2.855-.72 2.889 1.127.032 2.487 2.044 2.804 2.552-.011.04-.024.078-.038.117 0 0-1.587-2.631-2.88-2.67-1.294-.037-.44-1.6.98-3.182z" opacity=".1"/>
        <path fill="#FFD037" d="M2.633 89.932c0 .33.036.598.082.598.046 0 .082-.261.082-.598 0-.337-.045-.175-.091-.175s-.073-.156-.073.175z"/>
        <path fill="#FFD037" d="M2.173 90.326c.29.158.545.254.567.213.022-.04-.196-.2-.487-.358-.29-.158-.177-.043-.198 0-.02.043-.173-.013.118.145z"/>
        <path fill="#A8A8A8" d="M2.862 94.465s2.01-.062 2.618-.493c.607-.43 3.093-.944 3.244-.261.15.683 3.021 3.436.751 3.454-2.27.018-5.274-.354-5.879-.721-.605-.367-.734-1.98-.734-1.98z"/>
        <path fill="#000" d="M9.513 96.931c-2.27.019-5.274-.354-5.879-.72-.46-.28-.644-1.285-.706-1.749h-.066s.13 1.619.731 1.986 3.61.74 5.88.721c.654 0 .88-.24.869-.583-.092.21-.34.341-.829.345z" opacity=".2"/>
        <path fill="#444053" d="M53.581 54.128c.769-.043 4.386-.315 6.683-1.622.37-.217.786-.34 1.214-.357.73-.021 1.57.283 1.033 1.987-.872 2.786-5.934 5.922-9.076 5.748-3.022-.167-6.606-1.382-8.973-5.654-.226-.411-.338-.875-.323-1.344.028-.863.342-1.943 1.964-.738 2.191 1.626 6.349 1.934 7.183 1.98.098.005.197.005.295 0zM82.643 54.128c.768-.043 4.385-.315 6.683-1.622.368-.217.785-.34 1.213-.357.73-.021 1.57.283 1.033 1.987-.872 2.786-5.934 5.922-9.076 5.748-3.021-.167-6.605-1.382-8.972-5.654-.227-.411-.339-.875-.324-1.344.028-.863.342-1.943 1.964-.738 2.191 1.626 6.349 1.934 7.183 1.98.098.005.197.005.296 0z"/>
    </g>
    <defs>
        <linearGradient id="prefix__paint0_linear" x1="116.787" x2="116.787" y1="99.021" y2="34.482" gradientUnits="userSpaceOnUse">
            <stop stop-color="gray" stop-opacity=".25"/>
            <stop offset=".54" stop-color="gray" stop-opacity=".12"/>
            <stop offset="1" stop-color="gray" stop-opacity=".1"/>
        </linearGradient>
        <clipPath id="prefix__clip0">
            <path fill="#fff" d="M0 0H144V106H0z"/>
        </clipPath>
    </defs>
</svg>
